<svg width="13" height="13" viewBox="0 0 13 13" fill="none" xmlns="http://www.w3.org/2000/svg">
<path d="M5.5 0V3H0V2.5C0 1.83696 0.263392 1.20107 0.732233 0.732233C1.20107 0.263392 1.83696 0 2.5 0H5.5ZM6.5 0V4C7.20912 3.98666 7.90589 4.18664 8.5 4.574C9.01513 4.23869 9.60848 4.04288 10.222 4.00572C10.8355 3.96856 11.4482 4.09132 12 4.362V2.5C12 1.83696 11.7366 1.20107 11.2678 0.732233C10.7989 0.263392 10.163 0 9.5 0H6.5ZM5.5 4V4.163C4.94845 4.33643 4.4476 4.64195 4.041 5.053C3.37402 5.72653 2.99987 6.63611 2.99987 7.584C2.99987 8.53189 3.37402 9.44147 4.041 10.115L5.5 11.585V12H2.5C1.83696 12 1.20107 11.7366 0.732233 11.2678C0.263392 10.7989 0 10.163 0 9.5V4H5.5ZM4.751 9.41L8.181 12.867C8.2228 12.9089 8.27244 12.9421 8.3271 12.9648C8.38175 12.9874 8.44033 12.9991 8.4995 12.9991C8.55867 12.9991 8.61725 12.9874 8.67191 12.9648C8.72656 12.9421 8.7762 12.9089 8.818 12.867L12.249 9.41C12.5068 9.14919 12.7064 8.83678 12.8348 8.4933C12.9631 8.14982 13.0173 7.78306 12.9938 7.41712C12.9703 7.05119 12.8696 6.69439 12.6983 6.37017C12.527 6.04595 12.289 5.76166 12 5.536C11.5076 5.15342 10.892 4.96453 10.2697 5.00507C9.64748 5.04561 9.06163 5.31276 8.623 5.756L8.5 5.88L8.377 5.757L8.302 5.684C7.93264 5.33891 7.46889 5.11163 6.96986 5.03113C6.47083 4.95063 5.95913 5.02056 5.5 5.232C5.12305 5.40801 4.79391 5.672 4.54027 6.00175C4.28663 6.3315 4.11592 6.71736 4.04251 7.12685C3.9691 7.53634 3.99514 7.95747 4.11843 8.35479C4.24173 8.75212 4.45867 9.11401 4.751 9.41Z" fill="#8F8F8F"/>
</svg>
