<svg width="20" height="20" viewBox="0 0 20 20" fill="none" xmlns="http://www.w3.org/2000/svg">
<path d="M6.74978 3.74975C7.24978 4.24975 8.25278 4.16175 9.74978 2.92575M9.74978 2.92575C9.52845 2.74442 9.29878 2.53575 9.06078 2.29975C6.75478 0.0157492 3.61478 0.462749 2.14378 2.29975C1.12778 3.56975 -1.47222 6.72975 4.89178 17.9897C5.15578 18.4557 5.68078 18.7497 6.24578 18.7497C7.14778 18.7497 7.85278 18.0297 7.88178 17.1897C7.94478 15.4077 8.28978 13.3527 9.74978 13.3527C11.2098 13.3527 11.5558 15.4077 11.6178 17.1897C11.6468 18.0297 12.3518 18.7497 13.2538 18.7497C13.8188 18.7497 14.3438 18.4557 14.6078 17.9897C20.9728 6.72875 18.3718 3.56975 17.3558 2.29975C15.8848 0.462749 12.7448 0.0157492 10.4388 2.29975C10.2008 2.53508 9.97111 2.74375 9.74978 2.92575Z" stroke="white" stroke-width="1.5" stroke-linecap="round" stroke-linejoin="round"/>
</svg>
