<svg width="20" height="21" viewBox="0 0 20 21" fill="none" xmlns="http://www.w3.org/2000/svg">
<path d="M5.75 13.747H13.447C13.619 13.7461 13.7892 13.7113 13.9478 13.6446C14.1064 13.5779 14.2503 13.4806 14.3713 13.3583C14.4923 13.236 14.588 13.0911 14.653 12.9318C14.7179 12.7725 14.7509 12.602 14.75 12.43C14.75 11.99 14.53 11.583 14.134 11.399C13.045 10.895 10.441 9.96297 5.751 9.74897C4.648 9.69897 3.75 10.61 3.75 11.726C3.75 12.842 4.645 13.747 5.75 13.747Z" stroke="white" stroke-width="1.5" stroke-linecap="round" stroke-linejoin="round"/>
<path d="M14.75 12.747L18.69 2.23097C18.9 1.65597 18.54 1.03797 17.903 0.875972C16.269 0.460972 14.558 1.05797 14.02 2.53197C13.394 4.24297 12.75 6.87797 12.75 10.747M12.75 6.70697C12.75 6.70697 9.369 5.31297 8.07 5.88697C7.68 6.05897 7.348 6.34397 7.114 6.70697C6.75 7.27297 6.75 8.09697 6.75 9.74697M3.75 11.747V14.747C3.75 15.679 3.75 16.145 3.598 16.512C3.49749 16.7548 3.3501 16.9754 3.16428 17.1612C2.97845 17.3471 2.75782 17.4945 2.515 17.595C2.148 17.747 1.682 17.747 0.75 17.747M9.75 13.747V19.747M7.75 19.747H11.75" stroke="white" stroke-width="1.5" stroke-linecap="round" stroke-linejoin="round"/>
</svg>
