<svg width="14" height="13" viewBox="0 0 14 13" fill="none" xmlns="http://www.w3.org/2000/svg">
<path fill-rule="evenodd" clip-rule="evenodd" d="M10.0314 0.815334C9.71405 0.691334 9.35872 0.670667 8.90338 0.667333C8.80882 0.467648 8.65949 0.29892 8.47279 0.180782C8.28608 0.0626432 8.06966 -4.87438e-05 7.84871 1.41282e-07H5.18205C4.96117 -0.000108537 4.74481 0.0624841 4.55811 0.1805C4.37141 0.298516 4.22204 0.467106 4.12738 0.666667C3.67138 0.670667 3.31671 0.691334 2.99938 0.815334C2.62056 0.963515 2.29111 1.21534 2.04872 1.542C1.80405 1.87067 1.68872 2.29333 1.53138 2.874L1.11272 4.40933C0.850457 4.54165 0.620565 4.73012 0.439382 4.96133C0.0247149 5.49267 -0.0486183 6.12533 0.0253817 6.85067C0.096715 7.55467 0.318715 8.44133 0.596048 9.55067L0.613382 9.622C0.789382 10.3233 0.931382 10.8933 1.10072 11.338C1.27738 11.802 1.50205 12.182 1.87138 12.4707C2.24138 12.7593 2.66471 12.884 3.15738 12.944C3.62938 13 4.21738 13 4.94071 13H8.09005C8.81338 13 9.40072 13 9.87338 12.9433C10.3667 12.8847 10.7894 12.7593 11.1587 12.47C11.5287 12.182 11.7527 11.802 11.9294 11.338C12.0994 10.8933 12.2414 10.3233 12.4167 9.62133L12.4347 9.55133C12.712 8.44133 12.9334 7.55467 13.0054 6.85133C13.0787 6.12467 13.0054 5.49267 12.5907 4.96133C12.4097 4.7302 12.1801 4.54174 11.918 4.40933L11.4994 2.874C11.3414 2.29333 11.226 1.87067 10.982 1.54133C10.7396 1.21492 10.4101 0.963332 10.0314 0.815334ZM3.36338 1.74667C3.51005 1.68933 3.68738 1.67267 4.12805 1.668C4.31605 2.06133 4.71738 2.33333 5.18138 2.33333H7.84805C8.31338 2.33333 8.71472 2.06133 8.90272 1.668C9.34338 1.67267 9.52072 1.68933 9.66738 1.74667C9.87138 1.82667 10.0487 1.962 10.1794 2.138C10.2967 2.296 10.3654 2.51667 10.5594 3.228L10.7954 4.09267C10.1034 4 9.21005 4 8.10005 4H4.93005C3.82071 4 2.92738 4 2.23538 4.09267L2.47138 3.228C2.66472 2.51667 2.73405 2.296 2.85138 2.138C2.98192 1.96207 3.15936 1.82645 3.36338 1.74667ZM5.18205 1C5.13785 1 5.09545 1.01756 5.0642 1.04882C5.03294 1.08007 5.01538 1.12246 5.01538 1.16667C5.01538 1.21087 5.03294 1.25326 5.0642 1.28452C5.09545 1.31577 5.13785 1.33333 5.18205 1.33333H7.84871C7.89292 1.33333 7.93531 1.31577 7.96657 1.28452C7.99782 1.25326 8.01538 1.21087 8.01538 1.16667C8.01538 1.12246 7.99782 1.08007 7.96657 1.04882C7.93531 1.01756 7.89292 1 7.84871 1H5.18205ZM1.22805 5.57667C1.41405 5.33867 1.70805 5.17867 2.31471 5.09067C2.93538 5.00133 3.77672 5 4.97205 5H8.05871C9.25405 5 10.0947 5.00133 10.7154 5.09067C11.3227 5.17867 11.6167 5.33867 11.8027 5.57733C11.9887 5.81533 12.0727 6.13867 12.01 6.74933C11.9467 7.37333 11.7441 8.18933 11.4541 9.34933C11.2694 10.088 11.1407 10.6 10.9954 10.9827C10.854 11.352 10.716 11.5473 10.5434 11.6827C10.3707 11.8173 10.1474 11.9033 9.75471 11.9507C9.34805 11.9993 8.82138 12 8.05871 12H4.97205C4.20938 12 3.68205 11.9993 3.27605 11.9507C2.88271 11.904 2.66005 11.8173 2.48738 11.6827C2.31405 11.5473 2.17605 11.352 2.03538 10.9827C1.89005 10.6 1.76138 10.088 1.57605 9.34933C1.28672 8.18933 1.08338 7.37333 1.02005 6.74933C0.958048 6.13867 1.04205 5.81467 1.22805 5.57667Z" fill="white"/>
</svg>
