<svg width="20" height="20" viewBox="0 0 20 20" fill="none" xmlns="http://www.w3.org/2000/svg">
<path d="M12 12L13.5 13.5M12 12V9.828C11.9999 9.29761 11.7891 8.78899 11.414 8.414L4 1L1 4L8.414 11.414C8.78899 11.7891 9.29761 11.9999 9.828 12H12ZM16.347 13.575L18.427 15.654C18.7946 16.0217 19.001 16.5204 19.001 17.0404C19.0009 17.5603 18.7942 18.0589 18.4265 18.4265C18.0588 18.7941 17.5601 19.0005 17.0401 19.0005C16.5202 19.0004 16.0216 18.7937 15.654 18.426L13.574 16.347C13.2064 15.9793 13 15.4806 13 14.9606C13.0001 14.4407 13.2068 13.9421 13.5745 13.5745C13.9422 13.2069 14.4409 13.0005 14.9609 13.0005C15.4808 13.0006 15.9794 13.2073 16.347 13.575Z" stroke="white" stroke-width="2" stroke-linecap="round" stroke-linejoin="round"/>
</svg>
