<svg width="14" height="14" viewBox="0 0 14 14" fill="none" xmlns="http://www.w3.org/2000/svg">
<path d="M10.3853 1.62133L9.052 0.921333C7.88133 0.307333 7.296 0 6.66667 0C6.03733 0 5.452 0.306667 4.28133 0.921333L4.06733 1.034L10.016 4.43333L12.6933 3.09333C12.2627 2.60533 11.568 2.24067 10.3853 1.62M13.1653 3.976L10.5 5.30933V7.33333C10.5 7.46594 10.4473 7.59312 10.3536 7.68689C10.2598 7.78065 10.1326 7.83333 10 7.83333C9.86739 7.83333 9.74021 7.78065 9.64645 7.68689C9.55268 7.59312 9.5 7.46594 9.5 7.33333V5.80933L7.16667 6.976V13.2693C7.64533 13.15 8.19 12.8647 9.052 12.412L10.3853 11.712C11.8193 10.9593 12.5367 10.5833 12.9353 9.90667C13.3333 9.23067 13.3333 8.38867 13.3333 6.70667V6.62867C13.3333 5.36667 13.3333 4.57733 13.1653 3.976ZM6.16667 13.2693V6.976L0.168 3.976C5.96047e-08 4.57733 0 5.36667 0 6.62733V6.70533C0 8.38867 -5.96047e-08 9.23067 0.398 9.90667C0.796667 10.5833 1.514 10.96 2.948 11.7127L4.28133 12.412C5.14333 12.8647 5.688 13.15 6.16667 13.2693ZM0.64 3.094L6.66667 6.10733L8.94067 4.97067L3.01667 1.58533L2.948 1.62133C1.766 2.24133 1.07067 2.60533 0.64 3.094Z" fill="#8F8F8F"/>
</svg>
