<svg width="14" height="14" viewBox="0 0 14 14" fill="none" xmlns="http://www.w3.org/2000/svg">
<path d="M6.66699 0C10.3489 9.66338e-08 13.334 2.98509 13.334 6.66699C13.334 10.3489 10.3489 13.334 6.66699 13.334C2.98509 13.334 9.66369e-08 10.3489 0 6.66699C0 2.98509 2.98509 0 6.66699 0ZM10.6982 4.11816C10.3029 3.73267 9.66974 3.74047 9.28418 4.13574L6.09961 7.40137L4.71582 5.98242C4.33029 5.58701 3.6972 5.57838 3.30176 5.96387C2.90667 6.34943 2.8988 6.9826 3.28418 7.37793L4.66797 8.79785C5.45281 9.60275 6.74727 9.60257 7.53223 8.79785L10.7158 5.53223C11.1013 5.13684 11.0935 4.50373 10.6982 4.11816Z" fill="#00AD17"/>
</svg>
