<svg width="190" height="19" viewBox="0 0 190 19" fill="none" xmlns="http://www.w3.org/2000/svg">
<g clip-path="url(#clip0_2696_4307)">
<path d="M46.0843 8.41867C46.0843 8.4959 46.0843 8.57314 46.0067 8.65037L42.3604 8.03249C42.3604 7.95525 42.3604 7.87802 42.4379 7.80078L46.0843 8.41867Z" fill="#006EFF"/>
<path d="M46.3167 7.49163C46.2391 7.72334 46.1615 7.95505 46.0839 8.26399L42.5151 7.25992C42.5927 6.95098 42.6703 6.5648 42.8255 6.25586L46.3167 7.49163Z" fill="#006EFF"/>
<path d="M46.7821 6.48841C46.7045 6.72012 46.5494 6.95182 46.4718 7.18353L43.1357 5.48434C43.2909 5.25264 43.4461 4.94369 43.6012 4.63475L45.5408 5.79329L43.9892 4.01686C44.0667 3.93963 44.1443 3.86239 44.2219 3.78516L46.3166 6.17947L46.7821 6.48841Z" fill="#006EFF"/>
<path d="M46.0067 9.11423H42.2827C42.2827 9.26871 42.2827 9.34594 42.2827 9.50041C42.2827 9.57765 42.2827 9.65488 42.2827 9.73212H46.0067C46.0067 9.65488 46.0067 9.57765 46.0067 9.50041C45.9291 9.34594 46.0067 9.26871 46.0067 9.11423ZM47.248 13.2077L46.4722 12.8216L46.8601 12.5898C46.7825 12.5126 46.7825 12.4354 46.7049 12.3581L46.2394 12.6671L45.6964 12.3581L45.8515 12.1264L46.4722 11.8947C46.2394 11.2768 46.0067 10.6589 46.0067 9.96383L45.6188 10.6589L44.0671 10.9679C44.0671 10.9679 43.1361 10.8134 42.2827 10.6589C42.2827 10.7362 42.2827 10.8134 42.3603 10.9679H42.5155L42.9034 11.1996L42.4379 11.2768C42.4379 11.3541 42.4379 11.4313 42.5155 11.5085L43.2913 11.3541L43.4465 11.4313L42.593 11.663C42.6706 11.972 42.7482 12.2809 42.8258 12.5898L44.6102 12.0492L44.7654 12.1264L42.9034 12.8216C42.981 12.976 42.981 13.0533 43.0585 13.2077L44.455 12.6671L43.6016 14.2118C43.7568 14.5207 43.9895 14.8297 44.2223 15.1386L44.9205 13.8256L46.317 12.976L47.0928 13.3622L44.6102 15.5248C44.6878 15.602 44.6878 15.6793 44.7654 15.7565L47.3256 13.5167L48.179 13.9801L45.8515 16.8378C45.9291 16.915 46.0067 16.915 46.0843 16.9923L48.4117 14.1346C47.9463 13.9029 47.5583 13.5939 47.248 13.2077ZM45.1533 13.3622L45.5412 12.5898L45.9291 12.8216L45.1533 13.3622ZM56.4803 17.8419L54.6959 15.911L54.2304 15.3703L54.0753 14.9069C53.6874 15.0614 53.377 15.1386 52.9891 15.2159L53.377 16.6833L52.1357 15.9882V15.3703C52.0581 15.3703 51.9806 15.3703 51.903 15.3703C51.8254 15.3703 51.7478 15.3703 51.6702 15.3703V15.7565L51.0496 15.4476V15.3703C50.1186 15.2159 49.3427 14.9069 48.5669 14.4435L46.7825 17.6874C47.0153 17.8419 47.3256 17.9963 47.6359 18.1508L48.4893 16.6833L49.3427 15.6793V16.4516L48.6445 18.537C48.7221 18.537 48.7997 18.6142 48.8772 18.6142L49.3427 17.3012V18.7687C49.4203 18.7687 49.4979 18.8459 49.5755 18.8459V16.5289L50.041 15.2159L50.7392 15.602L50.2737 19.0004C50.3513 19.0004 50.4289 19.0004 50.5065 19.0777L50.972 15.8337L51.5926 16.2199V19.2321C51.6702 19.2321 51.7478 19.2321 51.8254 19.2321C51.903 19.2321 52.0581 19.2321 52.1357 19.2321L52.0581 16.5289L53.377 17.3012L53.8425 19.0777C54.1529 19.0004 54.4632 18.9232 54.7735 18.8459L54.5408 17.9963L54.8511 18.1508L55.0839 18.6915C55.1614 18.6915 55.239 18.6142 55.3166 18.6142L55.239 18.3825L55.5494 18.537C55.6269 18.4598 55.7821 18.4598 55.8597 18.3825L55.0839 17.9191L54.4632 16.2972L56.17 18.1508C56.3252 17.9191 56.4028 17.8419 56.4803 17.8419ZM54.6959 17.4557L54.4632 17.3012L53.9977 15.602L54.6959 17.4557ZM61.3681 9.50041C61.3681 9.42318 61.3681 9.42318 61.3681 9.34594H59.5061L58.4975 8.57358V8.41911L61.2129 7.87846C61.2129 7.80123 61.2129 7.72399 61.1353 7.64675L58.5751 8.11017V8.03293L61.0577 7.33781C60.9801 7.02887 60.9026 6.71993 60.825 6.41098L58.7302 7.02887L60.7474 6.25651C60.6698 6.10204 60.6698 6.0248 60.5922 5.87033L58.8078 6.56545L59.0406 5.40692L60.1267 4.78903C60.0491 4.71179 60.0492 4.63456 59.9716 4.55732L59.1182 5.02074L59.3509 3.63049C59.1957 3.47602 59.0406 3.24432 58.8854 3.08984L56.0148 5.48415C56.0924 5.63862 56.2476 5.71586 56.3252 5.87033L59.0406 3.63049L58.8078 5.25245L56.7907 6.41098C56.8683 6.48822 56.8683 6.56545 56.9458 6.64269L58.8078 5.56139L58.6527 6.64269L57.3338 7.18334C57.4889 7.64675 57.6441 8.03293 57.7217 8.49635L58.1096 8.41911L58.3423 8.57358L58.2647 9.26871H57.7993C57.7993 9.34594 57.7993 9.34594 57.7993 9.42318C57.7993 9.50041 57.7993 9.57765 57.7993 9.65488H58.1872L58.1096 10.2728L57.7993 10.1955C57.7993 10.2728 57.7993 10.35 57.7217 10.4272L58.032 10.5045L57.9544 10.8907L57.5665 10.8134C57.4889 11.1224 57.4113 11.3541 57.2562 11.663L57.7217 12.2037L57.1786 11.972C57.101 12.2037 56.9458 12.4354 56.7907 12.5898L57.4113 12.8988L56.9458 12.8216L56.6355 12.7443L56.5579 12.8216C56.4803 12.976 56.3252 13.1305 56.2476 13.2077L57.3338 14.0573L57.2562 14.598L56.0924 13.4394C56.0149 13.5167 55.9373 13.5939 55.7821 13.7484L57.1786 15.0614V15.2931L55.7821 13.7484C55.7045 13.8256 55.6269 13.9029 55.5494 13.9029L57.101 15.602L56.7907 17.5329L54.9287 14.3663C54.8511 14.4435 54.7735 14.4435 54.6959 14.5207L56.5579 17.6874C56.7131 17.6102 56.9458 17.4557 57.101 17.3785L57.3338 15.911L58.032 16.6833C58.1096 16.6061 58.1872 16.5289 58.2647 16.5289L57.4113 15.602L57.4889 15.2931L58.4975 16.2972C58.5751 16.2199 58.6527 16.1427 58.8078 15.9882L57.5665 14.7524L57.6441 14.2118L59.2733 15.4476C59.3509 15.3703 59.4285 15.2931 59.4285 15.2159L57.7217 13.9029L57.7993 13.2077H58.032L59.1182 13.8256L59.8164 14.598C59.894 14.5207 59.894 14.4435 59.9716 14.3663H59.7388L59.894 14.4435C59.9716 14.3663 60.0491 14.2118 60.1267 14.1346L59.0406 13.5167L59.3509 13.5939L60.2043 13.9801C60.2819 13.8256 60.3595 13.6711 60.4371 13.4394L59.8164 13.3622L58.1872 12.5126L57.8768 12.1264L57.9544 11.663L60.7474 12.5898C60.825 12.2809 60.9026 12.0492 60.9801 11.7403L58.032 10.9679L58.1096 10.5817L61.1353 11.0451C61.1353 10.8907 61.2129 10.8134 61.2129 10.6589L59.9716 9.65488H61.2905C61.3681 9.65488 61.3681 9.57765 61.3681 9.50041ZM57.4113 13.8256L56.4803 13.1305L57.4113 13.285V13.8256ZM57.7217 11.8947L57.4113 11.5085L57.7993 11.663L57.7217 11.8947ZM58.4975 8.88253L59.1182 9.42318H58.4199L58.4975 8.88253ZM60.9026 10.8134L58.1872 10.4272L58.2647 9.80936H59.5061L60.9026 10.8134Z" fill="#006EFF"/>
<path d="M57.9542 2.24041L55.5492 5.09813C55.4716 5.0209 55.394 5.0209 55.3164 4.94366L57.7215 2.08594C57.7991 2.16317 57.8766 2.16317 57.9542 2.24041Z" fill="#006EFF"/>
<path d="M45.2306 2.62602C44.9978 2.78049 44.8427 3.01219 44.6875 3.2439L47.4805 5.63821C47.6356 5.48374 47.7132 5.4065 47.8684 5.25203L45.2306 2.62602ZM45.6185 2.23984C45.5409 2.31707 45.4633 2.39431 45.3857 2.39431L47.7908 5.1748C47.8684 5.09756 47.946 5.02033 48.0236 5.02033L45.6185 2.23984ZM47.015 1.31301C46.9374 1.39024 46.8598 1.39024 46.7822 1.46748L48.6442 4.63415C48.7218 4.55691 48.7994 4.55691 48.877 4.47967L47.015 1.31301ZM51.9803 1.23577L52.6785 0C52.3682 0 52.0579 0 51.8251 0C51.7475 0 51.6699 0 51.5924 0L50.4286 2.00813L50.0407 0.154472C49.5752 0.231707 49.1097 0.386179 48.7218 0.463415L48.7994 0.772358L48.5666 0.617886C48.4115 0.695122 48.3339 0.695122 48.2563 0.772358L49.1097 2.93496L49.4976 3.86179L49.1873 4.40244C49.6528 4.0935 50.1959 3.86179 50.8165 3.78455L50.739 3.47561L51.0493 2.93496L51.6699 3.47561V3.78455H51.9803V3.63008L52.0579 3.70732C52.213 3.70732 52.3682 3.70732 52.5234 3.70732L51.9803 3.2439V1.23577ZM48.6442 0.926829L48.9545 1.15854L49.1097 1.62195V2.00813L48.6442 0.926829ZM51.6699 3.08943L51.2044 2.62602L51.7475 1.69919V3.08943H51.6699ZM53.144 0.0772358L52.6009 3.70732C52.6785 3.70732 52.7561 3.70732 52.8337 3.78455L53.3768 0.154472C53.3768 0.154472 53.2216 0.0772358 53.144 0.0772358ZM54.7733 0.463415L53.5319 3.93902C53.6095 3.93902 53.6871 4.01626 53.7647 4.01626L55.006 0.54065C54.9284 0.54065 54.8508 0.463415 54.7733 0.463415ZM56.0146 1.00406L54.2302 4.24797C54.5405 4.40244 54.7733 4.55691 55.0836 4.71138L56.868 1.46748C56.6352 1.31301 56.3249 1.15854 56.0146 1.00406Z" fill="#006EFF"/>
<path d="M47.4032 5.7164C47.3256 5.79364 47.248 5.87087 47.248 5.94811L44.3774 3.70827C44.455 3.63103 44.455 3.5538 44.5326 3.47656L47.4032 5.7164Z" fill="#006EFF"/>
<path d="M10.784 1.31231C9.69784 0.848895 8.37893 0.617188 6.90486 0.617188H0V18.4587H3.25847V13.2839H6.90486C8.37893 13.2839 9.69784 13.0521 10.784 12.5115C11.9477 11.9708 12.8011 11.2757 13.4218 10.3489C14.0425 9.42207 14.3528 8.26353 14.3528 6.95052C14.3528 5.63751 14.0425 4.47898 13.4218 3.55215C12.8011 2.54808 11.9477 1.85296 10.784 1.31231ZM3.25847 3.55215H6.90486C8.37893 3.55215 9.46509 3.86109 10.1633 4.47898C10.8616 5.01963 11.1719 5.86922 11.1719 6.95052C11.1719 8.03182 10.8616 8.80418 10.1633 9.34483C9.46509 9.96272 8.37893 10.2717 6.90486 10.2717H3.25847V3.55215Z" fill="#006EFF"/>
<path d="M31.6539 12.4352C32.6625 11.9717 33.5159 11.1994 34.059 10.3498C34.6796 9.42296 34.9899 8.26442 34.9899 6.95141C34.9899 5.6384 34.6796 4.47987 34.059 3.55304C33.4383 2.62621 32.5849 1.85385 31.4211 1.39043C30.335 0.92702 29.0161 0.695312 27.542 0.695312H20.6372V13.2847L20.5596 13.362H20.6372V18.5368H23.8956V13.362H27.542C27.8523 13.362 28.1627 13.362 28.473 13.362L32.197 18.614H35.9209L31.6539 12.4352ZM23.8956 3.55304H27.542C29.0161 3.55304 30.1022 3.86198 30.8005 4.47987C31.4211 5.02052 31.8091 5.87011 31.8091 6.95141C31.8091 8.03271 31.4987 8.80507 30.8005 9.42296C30.1022 10.0408 29.0161 10.3498 27.542 10.3498H23.8956V3.55304Z" fill="#006EFF"/>
<path d="M69.5143 2.23914V9.19036H78.7467V10.8123H69.5143V18.3814H67.6523V0.617188H79.8328V2.23914H69.5143Z" fill="#006EFF"/>
<path d="M87.9787 0.617188H86.1167V18.3814H87.9787V0.617188Z" fill="#006EFF"/>
<path d="M97.211 17.9184C95.9696 17.5322 95.0386 16.9143 94.418 16.2192L95.1938 14.7517C95.8145 15.3696 96.6679 15.9102 97.754 16.2964C98.8402 16.6826 99.9263 16.9143 101.09 16.9143C102.719 16.9143 103.883 16.6053 104.659 16.0647C105.435 15.4468 105.823 14.7517 105.823 13.8249C105.823 13.1297 105.59 12.5118 105.202 12.1257C104.736 11.7395 104.271 11.3533 103.573 11.1216C102.874 10.8899 102.099 10.6582 100.935 10.3492C99.616 10.0403 98.5299 9.65412 97.754 9.34518C96.9782 9.03624 96.28 8.57282 95.7369 7.8777C95.1938 7.25981 94.8835 6.33298 94.8835 5.25168C94.8835 4.32485 95.1162 3.5525 95.5817 2.78014C96.0472 2.00778 96.823 1.46713 97.754 1.00372C98.7626 0.540301 99.9263 0.308594 101.4 0.308594C102.409 0.308594 103.418 0.463065 104.426 0.694773C105.435 1.00372 106.211 1.38989 106.986 1.85331L106.288 3.5525C105.512 3.08908 104.736 2.7029 103.883 2.4712C103.03 2.23949 102.176 2.08502 101.4 2.08502C99.8488 2.08502 98.685 2.39396 97.9092 3.01185C97.1334 3.62973 96.7454 4.40209 96.7454 5.32892C96.7454 6.02404 96.9782 6.64193 97.3661 7.02811C97.8316 7.49152 98.3747 7.80046 98.9953 8.03217C99.616 8.26388 100.547 8.49559 101.633 8.80453C102.952 9.11347 103.961 9.42241 104.814 9.73136C105.59 10.0403 106.288 10.5037 106.831 11.1216C107.374 11.7395 107.685 12.5891 107.685 13.6704C107.685 14.5972 107.452 15.3696 106.986 16.1419C106.521 16.9143 105.745 17.4549 104.736 17.9184C103.728 18.3818 102.487 18.5362 101.012 18.5362C99.6936 18.5362 98.4523 18.3045 97.211 17.9184Z" fill="#006EFF"/>
<path d="M115.831 2.23914V9.19036H125.063V10.8123H115.831V18.3814H113.969V0.617188H126.149V2.23914H115.831Z" fill="#006EFF"/>
<path d="M145.08 16.7595V18.3814H132.434V0.617188H144.692V2.23914H134.373V8.57247H143.528V10.1944H134.373V16.7595H145.08Z" fill="#006EFF"/>
<path d="M163.544 18.3814L159.432 12.666C158.967 12.7432 158.501 12.7432 158.036 12.7432H153.226V18.3814H151.364V0.617188H158.036C160.286 0.617188 162.07 1.15784 163.389 2.23914C164.708 3.32044 165.329 4.78792 165.329 6.71881C165.329 8.10906 164.941 9.26759 164.242 10.1944C163.544 11.1213 162.536 11.8164 161.217 12.2798L165.561 18.3814H163.544ZM161.993 9.96272C162.924 9.19036 163.389 8.10906 163.389 6.71881C163.389 5.25133 162.924 4.17003 161.993 3.39768C161.062 2.62532 159.743 2.23914 157.958 2.23914H153.226V11.1213H157.958C159.743 11.1213 161.062 10.7351 161.993 9.96272Z" fill="#006EFF"/>
<path d="M185.888 13.5939H175.958L173.785 18.3052H171.846L179.992 0.541016H181.854L190 18.3052H187.983L185.888 13.5939ZM185.19 12.1264L180.923 2.62638L176.656 12.1264H185.19Z" fill="#006EFF"/>
</g>
<defs>
<clipPath id="clip0_2696_4307">
<rect width="190" height="19" fill="white"/>
</clipPath>
</defs>
</svg>
